<mxfile host="app.diagrams.net" agent="Mozilla/5.0 (Windows NT 10.0; Win64; x64) AppleWebKit/537.36 (KHTML, like Gecko) Chrome/136.0.0.0 Safari/537.36" version="27.1.3" pages="2">
  <diagram name="第 1 页" id="MDG7bwuXKfWokIIYQYoC">
    <mxGraphModel dx="903" dy="644" grid="1" gridSize="10" guides="1" tooltips="1" connect="1" arrows="1" fold="1" page="1" pageScale="1" pageWidth="827" pageHeight="1169" math="0" shadow="0">
      <root>
        <mxCell id="0" />
        <mxCell id="1" parent="0" />
        <mxCell id="ZtRhXMNTXBW1UcfUOAF2-1" value="Frontend&lt;div&gt;(React + Nginx)&lt;/div&gt;" style="rounded=1;whiteSpace=wrap;html=1;strokeWidth=2;strokeColor=light-dark(#000000,#FFFFFF);fillColor=none;fontColor=light-dark(#000000,#FFFFFF);" vertex="1" parent="1">
          <mxGeometry x="120" y="59" width="120" height="60" as="geometry" />
        </mxCell>
        <mxCell id="ZtRhXMNTXBW1UcfUOAF2-2" value="Gateway&lt;div&gt;(Flask)&lt;/div&gt;" style="rounded=1;whiteSpace=wrap;html=1;strokeWidth=2;strokeColor=light-dark(#000000,#FFFFFF);fillColor=none;fontColor=light-dark(#000000,#FFFFFF);" vertex="1" parent="1">
          <mxGeometry x="320" y="59" width="120" height="60" as="geometry" />
        </mxCell>
        <mxCell id="ZtRhXMNTXBW1UcfUOAF2-3" value="Redis&lt;div&gt;(Message Queue)&lt;/div&gt;" style="rounded=1;whiteSpace=wrap;html=1;strokeWidth=2;strokeColor=light-dark(#000000,#FFFFFF);fillColor=none;fontColor=light-dark(#000000,#FFFFFF);" vertex="1" parent="1">
          <mxGeometry x="320" y="150" width="120" height="60" as="geometry" />
        </mxCell>
        <mxCell id="ZtRhXMNTXBW1UcfUOAF2-4" value="Filter Worker&lt;div&gt;(Celery)&lt;/div&gt;" style="rounded=1;whiteSpace=wrap;html=1;strokeWidth=2;strokeColor=light-dark(#000000,#FFFFFF);fillColor=none;fontColor=light-dark(#000000,#FFFFFF);" vertex="1" parent="1">
          <mxGeometry x="320" y="269" width="120" height="60" as="geometry" />
        </mxCell>
        <mxCell id="ZtRhXMNTXBW1UcfUOAF2-5" value="Convert Worker&lt;div&gt;(Celery)&lt;/div&gt;" style="rounded=1;whiteSpace=wrap;html=1;strokeWidth=2;strokeColor=light-dark(#000000,#FFFFFF);fillColor=none;fontColor=light-dark(#000000,#FFFFFF);" vertex="1" parent="1">
          <mxGeometry x="180" y="269" width="120" height="60" as="geometry" />
        </mxCell>
        <mxCell id="ZtRhXMNTXBW1UcfUOAF2-6" value="Cleaner Worker&lt;div&gt;(Celery)&lt;/div&gt;" style="rounded=1;whiteSpace=wrap;html=1;strokeWidth=2;strokeColor=light-dark(#000000,#FFFFFF);fillColor=none;fontColor=light-dark(#000000,#FFFFFF);" vertex="1" parent="1">
          <mxGeometry x="460" y="269" width="120" height="60" as="geometry" />
        </mxCell>
        <mxCell id="ZtRhXMNTXBW1UcfUOAF2-7" value="OCR Worker&lt;div&gt;(Celery)&lt;/div&gt;" style="rounded=1;whiteSpace=wrap;html=1;strokeWidth=2;strokeColor=light-dark(#000000,#FFFFFF);fillColor=none;fontColor=light-dark(#000000,#FFFFFF);" vertex="1" parent="1">
          <mxGeometry x="600" y="269" width="120" height="60" as="geometry" />
        </mxCell>
        <mxCell id="ZtRhXMNTXBW1UcfUOAF2-8" value="&lt;div&gt;Data&lt;/div&gt;(PostgreSQL)" style="rounded=1;whiteSpace=wrap;html=1;strokeWidth=2;strokeColor=light-dark(#000000,#FFFFFF);fillColor=none;fontColor=light-dark(#000000,#FFFFFF);" vertex="1" parent="1">
          <mxGeometry x="400" y="399" width="120" height="60" as="geometry" />
        </mxCell>
        <mxCell id="ZtRhXMNTXBW1UcfUOAF2-9" value="Object Storage&lt;br&gt;&lt;div&gt;(&lt;span style=&quot;background-color: transparent;&quot;&gt;MinIO&lt;/span&gt;&lt;span style=&quot;background-color: transparent;&quot;&gt;)&lt;/span&gt;&lt;/div&gt;" style="rounded=1;whiteSpace=wrap;html=1;strokeWidth=2;strokeColor=light-dark(#000000,#FFFFFF);fillColor=none;fontColor=light-dark(#000000,#FFFFFF);" vertex="1" parent="1">
          <mxGeometry x="240" y="399" width="120" height="60" as="geometry" />
        </mxCell>
        <mxCell id="ZtRhXMNTXBW1UcfUOAF2-13" value="" style="rounded=0;orthogonalLoop=1;jettySize=auto;html=1;endArrow=halfCircle;endFill=0;endSize=6;strokeWidth=2;sketch=0;exitX=1;exitY=0.5;exitDx=0;exitDy=0;strokeColor=light-dark(#000000,#FFFFFF);fontColor=light-dark(#000000,#FFFFFF);" edge="1" parent="1" source="ZtRhXMNTXBW1UcfUOAF2-1">
          <mxGeometry relative="1" as="geometry">
            <mxPoint x="258" y="89" as="sourcePoint" />
            <mxPoint x="279" y="89" as="targetPoint" />
          </mxGeometry>
        </mxCell>
        <mxCell id="ZtRhXMNTXBW1UcfUOAF2-14" value="" style="rounded=0;orthogonalLoop=1;jettySize=auto;html=1;endArrow=oval;endFill=0;sketch=0;sourcePerimeterSpacing=0;targetPerimeterSpacing=0;endSize=10;exitX=0;exitY=0.5;exitDx=0;exitDy=0;strokeWidth=2;strokeColor=light-dark(#000000,#FFFFFF);fontColor=light-dark(#000000,#FFFFFF);" edge="1" parent="1" source="ZtRhXMNTXBW1UcfUOAF2-2">
          <mxGeometry relative="1" as="geometry">
            <mxPoint x="299" y="89" as="sourcePoint" />
            <mxPoint x="280" y="89" as="targetPoint" />
          </mxGeometry>
        </mxCell>
        <mxCell id="ZtRhXMNTXBW1UcfUOAF2-25" value="" style="endArrow=none;html=1;rounded=0;strokeWidth=2;strokeColor=light-dark(#000000,#FFFFFF);fontColor=light-dark(#000000,#FFFFFF);" edge="1" parent="1">
          <mxGeometry width="50" height="50" relative="1" as="geometry">
            <mxPoint x="240" y="369" as="sourcePoint" />
            <mxPoint x="660" y="369" as="targetPoint" />
          </mxGeometry>
        </mxCell>
        <mxCell id="ZtRhXMNTXBW1UcfUOAF2-26" value="" style="endArrow=none;html=1;rounded=0;entryX=0.5;entryY=1;entryDx=0;entryDy=0;strokeWidth=2;strokeColor=light-dark(#000000,#FFFFFF);fontColor=light-dark(#000000,#FFFFFF);" edge="1" parent="1" target="ZtRhXMNTXBW1UcfUOAF2-6">
          <mxGeometry width="50" height="50" relative="1" as="geometry">
            <mxPoint x="520" y="369" as="sourcePoint" />
            <mxPoint x="440" y="319" as="targetPoint" />
          </mxGeometry>
        </mxCell>
        <mxCell id="ZtRhXMNTXBW1UcfUOAF2-27" value="" style="endArrow=none;html=1;rounded=0;entryX=0.5;entryY=1;entryDx=0;entryDy=0;strokeWidth=2;strokeColor=light-dark(#000000,#FFFFFF);fontColor=light-dark(#000000,#FFFFFF);" edge="1" parent="1" target="ZtRhXMNTXBW1UcfUOAF2-4">
          <mxGeometry width="50" height="50" relative="1" as="geometry">
            <mxPoint x="379.5" y="369" as="sourcePoint" />
            <mxPoint x="430" y="349" as="targetPoint" />
          </mxGeometry>
        </mxCell>
        <mxCell id="ZtRhXMNTXBW1UcfUOAF2-28" value="" style="endArrow=none;html=1;rounded=0;entryX=0.5;entryY=1;entryDx=0;entryDy=0;strokeWidth=2;strokeColor=light-dark(#000000,#FFFFFF);fontColor=light-dark(#000000,#FFFFFF);" edge="1" parent="1" target="ZtRhXMNTXBW1UcfUOAF2-5">
          <mxGeometry width="50" height="50" relative="1" as="geometry">
            <mxPoint x="240" y="369" as="sourcePoint" />
            <mxPoint x="580" y="369" as="targetPoint" />
          </mxGeometry>
        </mxCell>
        <mxCell id="ZtRhXMNTXBW1UcfUOAF2-29" value="" style="endArrow=none;html=1;rounded=0;exitX=0.5;exitY=0;exitDx=0;exitDy=0;strokeWidth=2;strokeColor=light-dark(#000000,#FFFFFF);fontColor=light-dark(#000000,#FFFFFF);" edge="1" parent="1" source="ZtRhXMNTXBW1UcfUOAF2-9">
          <mxGeometry width="50" height="50" relative="1" as="geometry">
            <mxPoint x="290" y="399" as="sourcePoint" />
            <mxPoint x="300" y="369" as="targetPoint" />
          </mxGeometry>
        </mxCell>
        <mxCell id="ZtRhXMNTXBW1UcfUOAF2-30" value="" style="endArrow=none;html=1;rounded=0;exitX=0.5;exitY=0;exitDx=0;exitDy=0;strokeWidth=2;strokeColor=light-dark(#000000,#FFFFFF);fontColor=light-dark(#000000,#FFFFFF);" edge="1" parent="1" source="ZtRhXMNTXBW1UcfUOAF2-8">
          <mxGeometry width="50" height="50" relative="1" as="geometry">
            <mxPoint x="413" y="429" as="sourcePoint" />
            <mxPoint x="460" y="369" as="targetPoint" />
          </mxGeometry>
        </mxCell>
        <mxCell id="ZtRhXMNTXBW1UcfUOAF2-31" value="" style="endArrow=none;html=1;rounded=0;entryX=0.5;entryY=1;entryDx=0;entryDy=0;strokeWidth=2;strokeColor=light-dark(#000000,#FFFFFF);fontColor=light-dark(#000000,#FFFFFF);" edge="1" parent="1" target="ZtRhXMNTXBW1UcfUOAF2-7">
          <mxGeometry width="50" height="50" relative="1" as="geometry">
            <mxPoint x="660" y="369" as="sourcePoint" />
            <mxPoint x="700" y="379" as="targetPoint" />
          </mxGeometry>
        </mxCell>
        <mxCell id="ZtRhXMNTXBW1UcfUOAF2-32" value="" style="endArrow=none;dashed=1;html=1;rounded=0;entryX=0.5;entryY=1;entryDx=0;entryDy=0;exitX=0.5;exitY=0;exitDx=0;exitDy=0;strokeWidth=2;strokeColor=light-dark(#000000,#FFFFFF);fontColor=light-dark(#000000,#FFFFFF);" edge="1" parent="1" source="ZtRhXMNTXBW1UcfUOAF2-3" target="ZtRhXMNTXBW1UcfUOAF2-2">
          <mxGeometry width="50" height="50" relative="1" as="geometry">
            <mxPoint x="390" y="360" as="sourcePoint" />
            <mxPoint x="440" y="310" as="targetPoint" />
          </mxGeometry>
        </mxCell>
        <mxCell id="ZtRhXMNTXBW1UcfUOAF2-33" value="" style="endArrow=none;dashed=1;html=1;rounded=0;strokeWidth=2;strokeColor=light-dark(#000000,#FFFFFF);fontColor=light-dark(#000000,#FFFFFF);" edge="1" parent="1">
          <mxGeometry width="50" height="50" relative="1" as="geometry">
            <mxPoint x="240" y="240" as="sourcePoint" />
            <mxPoint x="520" y="240" as="targetPoint" />
          </mxGeometry>
        </mxCell>
        <mxCell id="ZtRhXMNTXBW1UcfUOAF2-34" value="" style="endArrow=none;dashed=1;html=1;dashPattern=1 3;strokeWidth=2;rounded=0;entryX=0.5;entryY=1;entryDx=0;entryDy=0;exitX=0.5;exitY=0;exitDx=0;exitDy=0;strokeColor=light-dark(#000000,#FFFFFF);fontColor=light-dark(#000000,#FFFFFF);" edge="1" parent="1" source="ZtRhXMNTXBW1UcfUOAF2-4" target="ZtRhXMNTXBW1UcfUOAF2-3">
          <mxGeometry width="50" height="50" relative="1" as="geometry">
            <mxPoint x="390" y="360" as="sourcePoint" />
            <mxPoint x="440" y="310" as="targetPoint" />
          </mxGeometry>
        </mxCell>
        <mxCell id="ZtRhXMNTXBW1UcfUOAF2-35" value="" style="endArrow=none;dashed=1;html=1;dashPattern=1 3;strokeWidth=2;rounded=0;exitX=0.5;exitY=0;exitDx=0;exitDy=0;strokeColor=light-dark(#000000,#FFFFFF);fontColor=light-dark(#000000,#FFFFFF);" edge="1" parent="1" source="ZtRhXMNTXBW1UcfUOAF2-6">
          <mxGeometry width="50" height="50" relative="1" as="geometry">
            <mxPoint x="390" y="360" as="sourcePoint" />
            <mxPoint x="520" y="240" as="targetPoint" />
          </mxGeometry>
        </mxCell>
        <mxCell id="ZtRhXMNTXBW1UcfUOAF2-36" value="" style="endArrow=none;dashed=1;html=1;dashPattern=1 3;strokeWidth=2;rounded=0;exitX=0.5;exitY=0;exitDx=0;exitDy=0;strokeColor=light-dark(#000000,#FFFFFF);fontColor=light-dark(#000000,#FFFFFF);" edge="1" parent="1" source="ZtRhXMNTXBW1UcfUOAF2-5">
          <mxGeometry width="50" height="50" relative="1" as="geometry">
            <mxPoint x="390" y="360" as="sourcePoint" />
            <mxPoint x="240" y="240" as="targetPoint" />
          </mxGeometry>
        </mxCell>
      </root>
    </mxGraphModel>
  </diagram>
  <diagram id="TVRyO9wFZMwFEEVVSgPF" name="第 2 页">
    <mxGraphModel dx="903" dy="644" grid="1" gridSize="10" guides="1" tooltips="1" connect="1" arrows="1" fold="1" page="1" pageScale="1" pageWidth="827" pageHeight="1169" math="0" shadow="0">
      <root>
        <mxCell id="0" />
        <mxCell id="1" parent="0" />
        <mxCell id="bu5Fq-8ZqcE-jOjPjqsI-1" value="User" style="shape=umlActor;verticalLabelPosition=bottom;verticalAlign=top;html=1;fontColor=light-dark(#000000,#FFFFFF);fillColor=none;strokeColor=light-dark(#000000,#FFFFFF);" vertex="1" parent="1">
          <mxGeometry x="94" y="47" width="30" height="60" as="geometry" />
        </mxCell>
        <mxCell id="bu5Fq-8ZqcE-jOjPjqsI-2" value="Frontend" style="shape=umlLifeline;perimeter=lifelinePerimeter;whiteSpace=wrap;html=1;container=1;dropTarget=0;collapsible=0;recursiveResize=0;outlineConnect=0;portConstraint=eastwest;newEdgeStyle={&quot;curved&quot;:0,&quot;rounded&quot;:0};fillColor=none;fontColor=light-dark(#000000,#FFFFFF);strokeColor=light-dark(#000000,#FFFFFF);" vertex="1" parent="1">
          <mxGeometry x="179" y="67" width="100" height="283" as="geometry" />
        </mxCell>
        <mxCell id="bu5Fq-8ZqcE-jOjPjqsI-51" value="" style="html=1;points=[[0,0,0,0,5],[0,1,0,0,-5],[1,0,0,0,5],[1,1,0,0,-5]];perimeter=orthogonalPerimeter;outlineConnect=0;targetShapes=umlLifeline;portConstraint=eastwest;newEdgeStyle={&quot;curved&quot;:0,&quot;rounded&quot;:0};fontColor=light-dark(#000000,#FFFFFF);strokeColor=light-dark(#000000,#FFFFFF);fillColor=light-dark(#FFFFFF,#000000);" vertex="1" parent="bu5Fq-8ZqcE-jOjPjqsI-2">
          <mxGeometry x="45" y="238" width="10" height="30" as="geometry" />
        </mxCell>
        <mxCell id="bu5Fq-8ZqcE-jOjPjqsI-3" value="Gateway" style="shape=umlLifeline;perimeter=lifelinePerimeter;whiteSpace=wrap;html=1;container=1;dropTarget=0;collapsible=0;recursiveResize=0;outlineConnect=0;portConstraint=eastwest;newEdgeStyle={&quot;curved&quot;:0,&quot;rounded&quot;:0};fillColor=none;fontColor=light-dark(#000000,#FFFFFF);strokeColor=light-dark(#000000,#FFFFFF);" vertex="1" parent="1">
          <mxGeometry x="299" y="67" width="100" height="283" as="geometry" />
        </mxCell>
        <mxCell id="bu5Fq-8ZqcE-jOjPjqsI-47" value="" style="html=1;points=[[0,0,0,0,5],[0,1,0,0,-5],[1,0,0,0,5],[1,1,0,0,-5]];perimeter=orthogonalPerimeter;outlineConnect=0;targetShapes=umlLifeline;portConstraint=eastwest;newEdgeStyle={&quot;curved&quot;:0,&quot;rounded&quot;:0};fontColor=light-dark(#000000,#FFFFFF);strokeColor=light-dark(#000000,#FFFFFF);fillColor=light-dark(#FFFFFF,#000000);" vertex="1" parent="bu5Fq-8ZqcE-jOjPjqsI-3">
          <mxGeometry x="45" y="108" width="10" height="30" as="geometry" />
        </mxCell>
        <mxCell id="bu5Fq-8ZqcE-jOjPjqsI-4" value="Redis" style="shape=umlLifeline;perimeter=lifelinePerimeter;whiteSpace=wrap;html=1;container=1;dropTarget=0;collapsible=0;recursiveResize=0;outlineConnect=0;portConstraint=eastwest;newEdgeStyle={&quot;curved&quot;:0,&quot;rounded&quot;:0};fillColor=none;fontColor=light-dark(#000000,#FFFFFF);strokeColor=light-dark(#000000,#FFFFFF);" vertex="1" parent="1">
          <mxGeometry x="419" y="67" width="100" height="283" as="geometry" />
        </mxCell>
        <mxCell id="bu5Fq-8ZqcE-jOjPjqsI-49" value="" style="html=1;points=[[0,0,0,0,5],[0,1,0,0,-5],[1,0,0,0,5],[1,1,0,0,-5]];perimeter=orthogonalPerimeter;outlineConnect=0;targetShapes=umlLifeline;portConstraint=eastwest;newEdgeStyle={&quot;curved&quot;:0,&quot;rounded&quot;:0};fontColor=light-dark(#000000,#FFFFFF);strokeColor=light-dark(#000000,#FFFFFF);fillColor=light-dark(#FFFFFF,#000000);" vertex="1" parent="bu5Fq-8ZqcE-jOjPjqsI-4">
          <mxGeometry x="45" y="179" width="10" height="30" as="geometry" />
        </mxCell>
        <mxCell id="bu5Fq-8ZqcE-jOjPjqsI-5" value="Worker" style="shape=umlLifeline;perimeter=lifelinePerimeter;whiteSpace=wrap;html=1;container=1;dropTarget=0;collapsible=0;recursiveResize=0;outlineConnect=0;portConstraint=eastwest;newEdgeStyle={&quot;curved&quot;:0,&quot;rounded&quot;:0};fillColor=none;fontColor=light-dark(#000000,#FFFFFF);" vertex="1" parent="1">
          <mxGeometry x="180" y="382" width="100" height="260" as="geometry" />
        </mxCell>
        <mxCell id="bu5Fq-8ZqcE-jOjPjqsI-6" value="" style="html=1;points=[[0,0,0,0,5],[0,1,0,0,-5],[1,0,0,0,5],[1,1,0,0,-5]];perimeter=orthogonalPerimeter;outlineConnect=0;targetShapes=umlLifeline;portConstraint=eastwest;newEdgeStyle={&quot;curved&quot;:0,&quot;rounded&quot;:0};fontColor=light-dark(#000000,#FFFFFF);fillColor=light-dark(#FFFFFF,#000000);strokeColor=light-dark(#000000,#FFFFFF);" vertex="1" parent="bu5Fq-8ZqcE-jOjPjqsI-5">
          <mxGeometry x="45" y="159" width="10" height="31" as="geometry" />
        </mxCell>
        <mxCell id="bu5Fq-8ZqcE-jOjPjqsI-7" value="3. Process" style="html=1;align=left;spacingLeft=2;endArrow=block;rounded=0;edgeStyle=orthogonalEdgeStyle;curved=0;rounded=0;fontColor=light-dark(#000000,#FFFFFF);strokeColor=light-dark(#000000,#FFFFFF);" edge="1" parent="bu5Fq-8ZqcE-jOjPjqsI-5" target="bu5Fq-8ZqcE-jOjPjqsI-6">
          <mxGeometry relative="1" as="geometry">
            <mxPoint x="55" y="140" as="sourcePoint" />
            <Array as="points">
              <mxPoint x="85" y="170" />
            </Array>
            <mxPoint as="offset" />
          </mxGeometry>
        </mxCell>
        <mxCell id="bu5Fq-8ZqcE-jOjPjqsI-52" value="" style="html=1;points=[[0,0,0,0,5],[0,1,0,0,-5],[1,0,0,0,5],[1,1,0,0,-5]];perimeter=orthogonalPerimeter;outlineConnect=0;targetShapes=umlLifeline;portConstraint=eastwest;newEdgeStyle={&quot;curved&quot;:0,&quot;rounded&quot;:0};fontColor=light-dark(#000000,#FFFFFF);strokeColor=light-dark(#000000,#FFFFFF);fillColor=light-dark(#FFFFFF,#000000);" vertex="1" parent="bu5Fq-8ZqcE-jOjPjqsI-5">
          <mxGeometry x="45" y="105" width="10" height="30" as="geometry" />
        </mxCell>
        <mxCell id="bu5Fq-8ZqcE-jOjPjqsI-8" value="MinIO" style="shape=umlLifeline;perimeter=lifelinePerimeter;whiteSpace=wrap;html=1;container=1;dropTarget=0;collapsible=0;recursiveResize=0;outlineConnect=0;portConstraint=eastwest;newEdgeStyle={&quot;curved&quot;:0,&quot;rounded&quot;:0};fillColor=none;fontColor=light-dark(#000000,#FFFFFF);strokeColor=light-dark(#000000,#FFFFFF);" vertex="1" parent="1">
          <mxGeometry x="539" y="67" width="100" height="283" as="geometry" />
        </mxCell>
        <mxCell id="bu5Fq-8ZqcE-jOjPjqsI-48" value="" style="html=1;points=[[0,0,0,0,5],[0,1,0,0,-5],[1,0,0,0,5],[1,1,0,0,-5]];perimeter=orthogonalPerimeter;outlineConnect=0;targetShapes=umlLifeline;portConstraint=eastwest;newEdgeStyle={&quot;curved&quot;:0,&quot;rounded&quot;:0};fontColor=light-dark(#000000,#FFFFFF);strokeColor=light-dark(#000000,#FFFFFF);fillColor=light-dark(#FFFFFF,#000000);" vertex="1" parent="bu5Fq-8ZqcE-jOjPjqsI-8">
          <mxGeometry x="45" y="139" width="10" height="30" as="geometry" />
        </mxCell>
        <mxCell id="bu5Fq-8ZqcE-jOjPjqsI-9" value="Postgres" style="shape=umlLifeline;perimeter=lifelinePerimeter;whiteSpace=wrap;html=1;container=1;dropTarget=0;collapsible=0;recursiveResize=0;outlineConnect=0;portConstraint=eastwest;newEdgeStyle={&quot;curved&quot;:0,&quot;rounded&quot;:0};fillColor=none;fontColor=light-dark(#000000,#FFFFFF);strokeColor=light-dark(#000000,#FFFFFF);" vertex="1" parent="1">
          <mxGeometry x="659" y="67" width="100" height="283" as="geometry" />
        </mxCell>
        <mxCell id="bu5Fq-8ZqcE-jOjPjqsI-50" value="" style="html=1;points=[[0,0,0,0,5],[0,1,0,0,-5],[1,0,0,0,5],[1,1,0,0,-5]];perimeter=orthogonalPerimeter;outlineConnect=0;targetShapes=umlLifeline;portConstraint=eastwest;newEdgeStyle={&quot;curved&quot;:0,&quot;rounded&quot;:0};fontColor=light-dark(#000000,#FFFFFF);strokeColor=light-dark(#000000,#FFFFFF);fillColor=light-dark(#FFFFFF,#000000);" vertex="1" parent="bu5Fq-8ZqcE-jOjPjqsI-9">
          <mxGeometry x="45" y="210" width="10" height="30" as="geometry" />
        </mxCell>
        <mxCell id="bu5Fq-8ZqcE-jOjPjqsI-10" value="" style="endArrow=none;dashed=1;html=1;rounded=0;fontColor=light-dark(#000000,#FFFFFF);" edge="1" parent="1">
          <mxGeometry width="50" height="50" relative="1" as="geometry">
            <mxPoint x="109" y="350" as="sourcePoint" />
            <mxPoint x="109" y="135" as="targetPoint" />
          </mxGeometry>
        </mxCell>
        <mxCell id="bu5Fq-8ZqcE-jOjPjqsI-11" value="" style="endArrow=classic;html=1;rounded=0;fontColor=light-dark(#000000,#FFFFFF);strokeColor=light-dark(#000000,#FFFFFF);" edge="1" parent="1" target="bu5Fq-8ZqcE-jOjPjqsI-46">
          <mxGeometry width="50" height="50" relative="1" as="geometry">
            <mxPoint x="109" y="160" as="sourcePoint" />
            <mxPoint x="219" y="160" as="targetPoint" />
          </mxGeometry>
        </mxCell>
        <mxCell id="bu5Fq-8ZqcE-jOjPjqsI-12" value="1. Upload image" style="edgeLabel;html=1;align=center;verticalAlign=middle;resizable=0;points=[];fontColor=light-dark(#000000,#FFFFFF);" vertex="1" connectable="0" parent="bu5Fq-8ZqcE-jOjPjqsI-11">
          <mxGeometry x="-0.2226" y="4" relative="1" as="geometry">
            <mxPoint x="8" y="-5" as="offset" />
          </mxGeometry>
        </mxCell>
        <mxCell id="bu5Fq-8ZqcE-jOjPjqsI-13" value="" style="endArrow=classic;html=1;rounded=0;fontColor=light-dark(#000000,#FFFFFF);strokeColor=light-dark(#000000,#FFFFFF);" edge="1" parent="1" target="bu5Fq-8ZqcE-jOjPjqsI-47">
          <mxGeometry width="50" height="50" relative="1" as="geometry">
            <mxPoint x="229" y="189" as="sourcePoint" />
            <mxPoint x="339" y="189" as="targetPoint" />
          </mxGeometry>
        </mxCell>
        <mxCell id="bu5Fq-8ZqcE-jOjPjqsI-14" value="2. Forward image" style="edgeLabel;html=1;align=center;verticalAlign=middle;resizable=0;points=[];fontColor=light-dark(#000000,#FFFFFF);" vertex="1" connectable="0" parent="bu5Fq-8ZqcE-jOjPjqsI-13">
          <mxGeometry x="-0.2226" y="4" relative="1" as="geometry">
            <mxPoint x="11" y="-5" as="offset" />
          </mxGeometry>
        </mxCell>
        <mxCell id="bu5Fq-8ZqcE-jOjPjqsI-15" value="" style="endArrow=classic;html=1;rounded=0;fontColor=light-dark(#000000,#FFFFFF);strokeColor=light-dark(#000000,#FFFFFF);" edge="1" parent="1" target="bu5Fq-8ZqcE-jOjPjqsI-49">
          <mxGeometry width="50" height="50" relative="1" as="geometry">
            <mxPoint x="349" y="261" as="sourcePoint" />
            <mxPoint x="449" y="261" as="targetPoint" />
          </mxGeometry>
        </mxCell>
        <mxCell id="bu5Fq-8ZqcE-jOjPjqsI-16" value="4. Create task" style="edgeLabel;html=1;align=center;verticalAlign=middle;resizable=0;points=[];fontColor=light-dark(#000000,#FFFFFF);" vertex="1" connectable="0" parent="bu5Fq-8ZqcE-jOjPjqsI-15">
          <mxGeometry x="0.361" y="-1" relative="1" as="geometry">
            <mxPoint x="-20" y="-9" as="offset" />
          </mxGeometry>
        </mxCell>
        <mxCell id="bu5Fq-8ZqcE-jOjPjqsI-17" value="" style="endArrow=classic;html=1;rounded=0;fontColor=light-dark(#000000,#FFFFFF);strokeColor=light-dark(#000000,#FFFFFF);" edge="1" parent="1" target="bu5Fq-8ZqcE-jOjPjqsI-48">
          <mxGeometry width="50" height="50" relative="1" as="geometry">
            <mxPoint x="348.5" y="220" as="sourcePoint" />
            <mxPoint x="569" y="220" as="targetPoint" />
          </mxGeometry>
        </mxCell>
        <mxCell id="bu5Fq-8ZqcE-jOjPjqsI-18" value="3. Store image" style="edgeLabel;html=1;align=center;verticalAlign=middle;resizable=0;points=[];fontColor=light-dark(#000000,#FFFFFF);" vertex="1" connectable="0" parent="bu5Fq-8ZqcE-jOjPjqsI-17">
          <mxGeometry x="0.2708" y="-1" relative="1" as="geometry">
            <mxPoint x="-90" y="-10" as="offset" />
          </mxGeometry>
        </mxCell>
        <mxCell id="bu5Fq-8ZqcE-jOjPjqsI-19" value="" style="endArrow=classic;html=1;rounded=0;fontColor=light-dark(#000000,#FFFFFF);strokeColor=light-dark(#000000,#FFFFFF);" edge="1" parent="1" target="bu5Fq-8ZqcE-jOjPjqsI-50">
          <mxGeometry width="50" height="50" relative="1" as="geometry">
            <mxPoint x="348.75" y="292" as="sourcePoint" />
            <mxPoint x="689" y="292" as="targetPoint" />
          </mxGeometry>
        </mxCell>
        <mxCell id="bu5Fq-8ZqcE-jOjPjqsI-20" value="5. Create record" style="edgeLabel;html=1;align=center;verticalAlign=middle;resizable=0;points=[];fontColor=light-dark(#000000,#FFFFFF);" vertex="1" connectable="0" parent="bu5Fq-8ZqcE-jOjPjqsI-19">
          <mxGeometry x="0.2708" y="-1" relative="1" as="geometry">
            <mxPoint x="16" y="-9" as="offset" />
          </mxGeometry>
        </mxCell>
        <mxCell id="bu5Fq-8ZqcE-jOjPjqsI-21" value="" style="endArrow=classic;html=1;rounded=0;fontColor=light-dark(#000000,#FFFFFF);strokeColor=light-dark(#000000,#FFFFFF);" edge="1" parent="1" target="bu5Fq-8ZqcE-jOjPjqsI-51">
          <mxGeometry width="50" height="50" relative="1" as="geometry">
            <mxPoint x="348.5" y="320" as="sourcePoint" />
            <mxPoint x="249" y="320" as="targetPoint" />
          </mxGeometry>
        </mxCell>
        <mxCell id="bu5Fq-8ZqcE-jOjPjqsI-22" value="6. Return taskID" style="edgeLabel;html=1;align=center;verticalAlign=middle;resizable=0;points=[];fontColor=light-dark(#000000,#FFFFFF);" vertex="1" connectable="0" parent="bu5Fq-8ZqcE-jOjPjqsI-21">
          <mxGeometry x="0.0417" y="1" relative="1" as="geometry">
            <mxPoint y="-9" as="offset" />
          </mxGeometry>
        </mxCell>
        <mxCell id="bu5Fq-8ZqcE-jOjPjqsI-23" value="Redis" style="shape=umlLifeline;perimeter=lifelinePerimeter;whiteSpace=wrap;html=1;container=1;dropTarget=0;collapsible=0;recursiveResize=0;outlineConnect=0;portConstraint=eastwest;newEdgeStyle={&quot;curved&quot;:0,&quot;rounded&quot;:0};fillColor=none;fontColor=light-dark(#000000,#FFFFFF);" vertex="1" parent="1">
          <mxGeometry x="300" y="382" width="100" height="260" as="geometry" />
        </mxCell>
        <mxCell id="bu5Fq-8ZqcE-jOjPjqsI-24" value="MinIO" style="shape=umlLifeline;perimeter=lifelinePerimeter;whiteSpace=wrap;html=1;container=1;dropTarget=0;collapsible=0;recursiveResize=0;outlineConnect=0;portConstraint=eastwest;newEdgeStyle={&quot;curved&quot;:0,&quot;rounded&quot;:0};fillColor=none;fontColor=light-dark(#000000,#FFFFFF);" vertex="1" parent="1">
          <mxGeometry x="420" y="382" width="100" height="260" as="geometry" />
        </mxCell>
        <mxCell id="bu5Fq-8ZqcE-jOjPjqsI-56" value="" style="html=1;points=[[0,0,0,0,5],[0,1,0,0,-5],[1,0,0,0,5],[1,1,0,0,-5]];perimeter=orthogonalPerimeter;outlineConnect=0;targetShapes=umlLifeline;portConstraint=eastwest;newEdgeStyle={&quot;curved&quot;:0,&quot;rounded&quot;:0};fontColor=light-dark(#000000,#FFFFFF);strokeColor=light-dark(#000000,#FFFFFF);fillColor=light-dark(#FFFFFF,#000000);" vertex="1" parent="bu5Fq-8ZqcE-jOjPjqsI-24">
          <mxGeometry x="45" y="186" width="10" height="30" as="geometry" />
        </mxCell>
        <mxCell id="bu5Fq-8ZqcE-jOjPjqsI-25" value="Postgres" style="shape=umlLifeline;perimeter=lifelinePerimeter;whiteSpace=wrap;html=1;container=1;dropTarget=0;collapsible=0;recursiveResize=0;outlineConnect=0;portConstraint=eastwest;newEdgeStyle={&quot;curved&quot;:0,&quot;rounded&quot;:0};fillColor=none;fontColor=light-dark(#000000,#FFFFFF);" vertex="1" parent="1">
          <mxGeometry x="540" y="382" width="100" height="260" as="geometry" />
        </mxCell>
        <mxCell id="bu5Fq-8ZqcE-jOjPjqsI-57" value="" style="html=1;points=[[0,0,0,0,5],[0,1,0,0,-5],[1,0,0,0,5],[1,1,0,0,-5]];perimeter=orthogonalPerimeter;outlineConnect=0;targetShapes=umlLifeline;portConstraint=eastwest;newEdgeStyle={&quot;curved&quot;:0,&quot;rounded&quot;:0};fontColor=light-dark(#000000,#FFFFFF);strokeColor=light-dark(#000000,#FFFFFF);fillColor=light-dark(#FFFFFF,#000000);" vertex="1" parent="bu5Fq-8ZqcE-jOjPjqsI-25">
          <mxGeometry x="45" y="226" width="10" height="30" as="geometry" />
        </mxCell>
        <mxCell id="bu5Fq-8ZqcE-jOjPjqsI-26" value="" style="endArrow=classic;html=1;rounded=0;fontColor=light-dark(#000000,#FFFFFF);strokeColor=light-dark(#000000,#FFFFFF);" edge="1" parent="1">
          <mxGeometry width="50" height="50" relative="1" as="geometry">
            <mxPoint x="469.5" y="502" as="sourcePoint" />
            <mxPoint x="235" y="502" as="targetPoint" />
          </mxGeometry>
        </mxCell>
        <mxCell id="bu5Fq-8ZqcE-jOjPjqsI-27" value="2. Read image" style="edgeLabel;html=1;align=center;verticalAlign=middle;resizable=0;points=[];fontColor=light-dark(#000000,#FFFFFF);" vertex="1" connectable="0" parent="bu5Fq-8ZqcE-jOjPjqsI-26">
          <mxGeometry x="0.0417" y="1" relative="1" as="geometry">
            <mxPoint x="-45" y="-10" as="offset" />
          </mxGeometry>
        </mxCell>
        <mxCell id="bu5Fq-8ZqcE-jOjPjqsI-28" value="" style="endArrow=classic;html=1;rounded=0;fontColor=light-dark(#000000,#FFFFFF);strokeColor=light-dark(#000000,#FFFFFF);" edge="1" parent="1" target="bu5Fq-8ZqcE-jOjPjqsI-56">
          <mxGeometry width="50" height="50" relative="1" as="geometry">
            <mxPoint x="230" y="583" as="sourcePoint" />
            <mxPoint x="450" y="583" as="targetPoint" />
          </mxGeometry>
        </mxCell>
        <mxCell id="bu5Fq-8ZqcE-jOjPjqsI-29" value="4. Store image" style="edgeLabel;html=1;align=center;verticalAlign=middle;resizable=0;points=[];fontColor=light-dark(#000000,#FFFFFF);" vertex="1" connectable="0" parent="bu5Fq-8ZqcE-jOjPjqsI-28">
          <mxGeometry x="0.2708" y="-1" relative="1" as="geometry">
            <mxPoint x="-78" y="-10" as="offset" />
          </mxGeometry>
        </mxCell>
        <mxCell id="bu5Fq-8ZqcE-jOjPjqsI-30" value="" style="endArrow=classic;html=1;rounded=0;fontColor=light-dark(#000000,#FFFFFF);strokeColor=light-dark(#000000,#FFFFFF);" edge="1" parent="1" target="bu5Fq-8ZqcE-jOjPjqsI-57">
          <mxGeometry width="50" height="50" relative="1" as="geometry">
            <mxPoint x="230.25" y="623" as="sourcePoint" />
            <mxPoint x="570" y="623" as="targetPoint" />
          </mxGeometry>
        </mxCell>
        <mxCell id="bu5Fq-8ZqcE-jOjPjqsI-31" value="5. Update record and presigned URL" style="edgeLabel;html=1;align=center;verticalAlign=middle;resizable=0;points=[];fontColor=light-dark(#000000,#FFFFFF);" vertex="1" connectable="0" parent="bu5Fq-8ZqcE-jOjPjqsI-30">
          <mxGeometry x="0.2708" y="-1" relative="1" as="geometry">
            <mxPoint x="-103" y="-10" as="offset" />
          </mxGeometry>
        </mxCell>
        <mxCell id="bu5Fq-8ZqcE-jOjPjqsI-32" value="User" style="shape=umlActor;verticalLabelPosition=bottom;verticalAlign=top;html=1;fontColor=light-dark(#000000,#FFFFFF);fillColor=none;strokeColor=light-dark(#000000,#FFFFFF);" vertex="1" parent="1">
          <mxGeometry x="94" y="661" width="30" height="60" as="geometry" />
        </mxCell>
        <mxCell id="bu5Fq-8ZqcE-jOjPjqsI-33" value="Frontend" style="shape=umlLifeline;perimeter=lifelinePerimeter;whiteSpace=wrap;html=1;container=1;dropTarget=0;collapsible=0;recursiveResize=0;outlineConnect=0;portConstraint=eastwest;newEdgeStyle={&quot;curved&quot;:0,&quot;rounded&quot;:0};fillColor=none;fontColor=light-dark(#000000,#FFFFFF);strokeColor=light-dark(#000000,#FFFFFF);" vertex="1" parent="1">
          <mxGeometry x="179" y="681" width="100" height="220" as="geometry" />
        </mxCell>
        <mxCell id="bu5Fq-8ZqcE-jOjPjqsI-34" value="Gateway" style="shape=umlLifeline;perimeter=lifelinePerimeter;whiteSpace=wrap;html=1;container=1;dropTarget=0;collapsible=0;recursiveResize=0;outlineConnect=0;portConstraint=eastwest;newEdgeStyle={&quot;curved&quot;:0,&quot;rounded&quot;:0};fillColor=none;fontColor=light-dark(#000000,#FFFFFF);strokeColor=light-dark(#000000,#FFFFFF);" vertex="1" parent="1">
          <mxGeometry x="299" y="681" width="100" height="220" as="geometry" />
        </mxCell>
        <mxCell id="bu5Fq-8ZqcE-jOjPjqsI-58" value="" style="html=1;points=[[0,0,0,0,5],[0,1,0,0,-5],[1,0,0,0,5],[1,1,0,0,-5]];perimeter=orthogonalPerimeter;outlineConnect=0;targetShapes=umlLifeline;portConstraint=eastwest;newEdgeStyle={&quot;curved&quot;:0,&quot;rounded&quot;:0};fontColor=light-dark(#000000,#FFFFFF);strokeColor=light-dark(#000000,#FFFFFF);fillColor=light-dark(#FFFFFF,#000000);" vertex="1" parent="bu5Fq-8ZqcE-jOjPjqsI-34">
          <mxGeometry x="45" y="66" width="10" height="30" as="geometry" />
        </mxCell>
        <mxCell id="bu5Fq-8ZqcE-jOjPjqsI-63" value="" style="html=1;points=[[0,0,0,0,5],[0,1,0,0,-5],[1,0,0,0,5],[1,1,0,0,-5]];perimeter=orthogonalPerimeter;outlineConnect=0;targetShapes=umlLifeline;portConstraint=eastwest;newEdgeStyle={&quot;curved&quot;:0,&quot;rounded&quot;:0};fontColor=light-dark(#000000,#FFFFFF);fillColor=light-dark(#FFFFFF,#000000);strokeColor=light-dark(#000000,#FFFFFF);" vertex="1" parent="bu5Fq-8ZqcE-jOjPjqsI-34">
          <mxGeometry x="-75" y="144" width="10" height="30" as="geometry" />
        </mxCell>
        <mxCell id="bu5Fq-8ZqcE-jOjPjqsI-64" value="" style="endArrow=classic;html=1;rounded=0;fontColor=light-dark(#000000,#FFFFFF);strokeColor=light-dark(#000000,#FFFFFF);" edge="1" parent="bu5Fq-8ZqcE-jOjPjqsI-34" target="bu5Fq-8ZqcE-jOjPjqsI-63">
          <mxGeometry width="50" height="50" relative="1" as="geometry">
            <mxPoint x="49.5" y="159" as="sourcePoint" />
            <mxPoint x="-50" y="159" as="targetPoint" />
          </mxGeometry>
        </mxCell>
        <mxCell id="bu5Fq-8ZqcE-jOjPjqsI-65" value="3. Return URL" style="edgeLabel;html=1;align=center;verticalAlign=middle;resizable=0;points=[];fontColor=light-dark(#000000,#FFFFFF);" vertex="1" connectable="0" parent="bu5Fq-8ZqcE-jOjPjqsI-64">
          <mxGeometry x="0.0417" y="1" relative="1" as="geometry">
            <mxPoint y="-9" as="offset" />
          </mxGeometry>
        </mxCell>
        <mxCell id="bu5Fq-8ZqcE-jOjPjqsI-35" value="Postgres" style="shape=umlLifeline;perimeter=lifelinePerimeter;whiteSpace=wrap;html=1;container=1;dropTarget=0;collapsible=0;recursiveResize=0;outlineConnect=0;portConstraint=eastwest;newEdgeStyle={&quot;curved&quot;:0,&quot;rounded&quot;:0};fillColor=none;fontColor=light-dark(#000000,#FFFFFF);strokeColor=light-dark(#000000,#FFFFFF);" vertex="1" parent="1">
          <mxGeometry x="419" y="681" width="100" height="220" as="geometry" />
        </mxCell>
        <mxCell id="bu5Fq-8ZqcE-jOjPjqsI-59" value="" style="html=1;points=[[0,0,0,0,5],[0,1,0,0,-5],[1,0,0,0,5],[1,1,0,0,-5]];perimeter=orthogonalPerimeter;outlineConnect=0;targetShapes=umlLifeline;portConstraint=eastwest;newEdgeStyle={&quot;curved&quot;:0,&quot;rounded&quot;:0};fontColor=light-dark(#000000,#FFFFFF);fillColor=light-dark(#FFFFFF,#000000);strokeColor=light-dark(#000000,#FFFFFF);" vertex="1" parent="bu5Fq-8ZqcE-jOjPjqsI-35">
          <mxGeometry x="45" y="106" width="10" height="30" as="geometry" />
        </mxCell>
        <mxCell id="bu5Fq-8ZqcE-jOjPjqsI-36" value="" style="endArrow=none;dashed=1;html=1;rounded=0;fontColor=light-dark(#000000,#FFFFFF);strokeColor=light-dark(#000000,#FFFFFF);" edge="1" parent="1">
          <mxGeometry width="50" height="50" relative="1" as="geometry">
            <mxPoint x="109" y="901" as="sourcePoint" />
            <mxPoint x="109" y="748" as="targetPoint" />
          </mxGeometry>
        </mxCell>
        <mxCell id="bu5Fq-8ZqcE-jOjPjqsI-37" value="" style="endArrow=classic;html=1;rounded=0;fontColor=light-dark(#000000,#FFFFFF);strokeColor=light-dark(#000000,#FFFFFF);" edge="1" parent="1" target="bu5Fq-8ZqcE-jOjPjqsI-58">
          <mxGeometry width="50" height="50" relative="1" as="geometry">
            <mxPoint x="228.5" y="761" as="sourcePoint" />
            <mxPoint x="329" y="761" as="targetPoint" />
          </mxGeometry>
        </mxCell>
        <mxCell id="bu5Fq-8ZqcE-jOjPjqsI-38" value="1. Proxy" style="edgeLabel;html=1;align=center;verticalAlign=middle;resizable=0;points=[];fontColor=light-dark(#000000,#FFFFFF);" vertex="1" connectable="0" parent="bu5Fq-8ZqcE-jOjPjqsI-37">
          <mxGeometry x="-0.112" relative="1" as="geometry">
            <mxPoint x="4" y="-8" as="offset" />
          </mxGeometry>
        </mxCell>
        <mxCell id="bu5Fq-8ZqcE-jOjPjqsI-41" value="" style="endArrow=classic;html=1;rounded=0;fontColor=light-dark(#000000,#FFFFFF);strokeColor=light-dark(#000000,#FFFFFF);" edge="1" parent="1">
          <mxGeometry width="50" height="50" relative="1" as="geometry">
            <mxPoint x="227.5" y="881" as="sourcePoint" />
            <mxPoint x="108" y="881" as="targetPoint" />
          </mxGeometry>
        </mxCell>
        <mxCell id="bu5Fq-8ZqcE-jOjPjqsI-42" value="Download" style="edgeLabel;html=1;align=center;verticalAlign=middle;resizable=0;points=[];fontColor=light-dark(#000000,#FFFFFF);" vertex="1" connectable="0" parent="bu5Fq-8ZqcE-jOjPjqsI-41">
          <mxGeometry x="0.0417" y="1" relative="1" as="geometry">
            <mxPoint x="1" y="-5" as="offset" />
          </mxGeometry>
        </mxCell>
        <mxCell id="bu5Fq-8ZqcE-jOjPjqsI-43" value="" style="endArrow=open;endFill=1;endSize=12;html=1;rounded=0;fontColor=light-dark(#000000,#FFFFFF);strokeColor=light-dark(#000000,#FFFFFF);" edge="1" parent="1">
          <mxGeometry width="160" relative="1" as="geometry">
            <mxPoint x="349.5" y="462" as="sourcePoint" />
            <mxPoint x="229.5" y="462" as="targetPoint" />
          </mxGeometry>
        </mxCell>
        <mxCell id="bu5Fq-8ZqcE-jOjPjqsI-44" value="1. Get task" style="edgeLabel;html=1;align=center;verticalAlign=middle;resizable=0;points=[];fontColor=light-dark(#000000,#FFFFFF);" vertex="1" connectable="0" parent="bu5Fq-8ZqcE-jOjPjqsI-43">
          <mxGeometry x="0.2583" y="1" relative="1" as="geometry">
            <mxPoint x="19" y="-9" as="offset" />
          </mxGeometry>
        </mxCell>
        <mxCell id="bu5Fq-8ZqcE-jOjPjqsI-46" value="" style="html=1;points=[[0,0,0,0,5],[0,1,0,0,-5],[1,0,0,0,5],[1,1,0,0,-5]];perimeter=orthogonalPerimeter;outlineConnect=0;targetShapes=umlLifeline;portConstraint=eastwest;newEdgeStyle={&quot;curved&quot;:0,&quot;rounded&quot;:0};fillColor=light-dark(#FFFFFF,#000000);fontColor=light-dark(#000000,#FFFFFF);strokeColor=light-dark(#000000,#FFFFFF);" vertex="1" parent="1">
          <mxGeometry x="224" y="146" width="10" height="30" as="geometry" />
        </mxCell>
        <mxCell id="bu5Fq-8ZqcE-jOjPjqsI-60" value="" style="endArrow=classic;html=1;rounded=0;fontColor=light-dark(#000000,#FFFFFF);strokeColor=light-dark(#000000,#FFFFFF);" edge="1" parent="1">
          <mxGeometry width="50" height="50" relative="1" as="geometry">
            <mxPoint x="349" y="801" as="sourcePoint" />
            <mxPoint x="464.5" y="801" as="targetPoint" />
          </mxGeometry>
        </mxCell>
        <mxCell id="bu5Fq-8ZqcE-jOjPjqsI-61" value="2. Status &amp;amp; URL" style="edgeLabel;html=1;align=center;verticalAlign=middle;resizable=0;points=[];fontColor=light-dark(#000000,#FFFFFF);" vertex="1" connectable="0" parent="bu5Fq-8ZqcE-jOjPjqsI-60">
          <mxGeometry x="-0.112" relative="1" as="geometry">
            <mxPoint x="4" y="-8" as="offset" />
          </mxGeometry>
        </mxCell>
        <mxCell id="yA5QmRoKDRU7s4Oltxkw-1" value="Upload Flow" style="rounded=1;whiteSpace=wrap;html=1;fillColor=none;strokeColor=light-dark(#000000,#FFFFFF);fontColor=light-dark(#000000,#FFFFFF);fontSize=18;textDirection=vertical-lr;" vertex="1" parent="1">
          <mxGeometry x="20" y="40" width="50" height="320" as="geometry" />
        </mxCell>
        <mxCell id="yA5QmRoKDRU7s4Oltxkw-2" value="Process Flow" style="rounded=1;whiteSpace=wrap;html=1;fillColor=none;strokeColor=light-dark(#000000,#FFFFFF);fontColor=light-dark(#000000,#FFFFFF);fontSize=18;textDirection=vertical-lr;" vertex="1" parent="1">
          <mxGeometry x="20" y="360" width="50" height="289" as="geometry" />
        </mxCell>
        <mxCell id="yA5QmRoKDRU7s4Oltxkw-3" value="Download Flow" style="rounded=1;whiteSpace=wrap;html=1;fillColor=none;strokeColor=light-dark(#000000,#FFFFFF);fontColor=light-dark(#000000,#FFFFFF);fontSize=18;textDirection=vertical-lr;" vertex="1" parent="1">
          <mxGeometry x="20" y="649" width="50" height="270" as="geometry" />
        </mxCell>
      </root>
    </mxGraphModel>
  </diagram>
</mxfile>
